<svg width="98" height="48" viewBox="0 0 98 48" fill="none" xmlns="http://www.w3.org/2000/svg">
<path d="M13.6565 8.42114H22.4611V12.398C22.4611 17.9529 17.9532 22.4608 12.3983 22.4608H0V22.0776C0 14.5403 6.11917 8.42114 13.6565 8.42114Z" fill="#009D77"/>
<path d="M10.0628 0H22.4611V0.383202C22.4611 7.92052 16.3419 14.0397 8.80461 14.0397H0V10.0628C0 4.50791 4.50791 0 10.0628 0Z" fill="#01A6FF"/>
<path d="M31.907 5.07215C31.907 3.45486 32.5617 2.20568 33.8743 1.32461C35.1868 0.440532 37.0666 0 39.5197 0C41.9728 0 43.8798 0.205179 45.2436 0.61252V4.32989C43.7229 3.83504 41.9246 3.58762 39.8547 3.58762C37.7848 3.58762 36.7468 4.23333 36.7468 5.52777V6.39978C36.7468 7.04549 36.8916 7.54637 37.1783 7.90242C37.4649 8.25846 38.0292 8.61753 38.871 8.98564L43.394 11.0857C45.5182 12.0332 46.5803 13.4785 46.5803 15.4156V17.3226C46.5803 18.961 45.8592 20.2252 44.4169 21.1214C42.9746 22.0145 40.9137 22.4641 38.2404 22.4641C35.567 22.4641 33.5575 22.2257 32.2208 21.752V18.0045C33.8984 18.5868 35.7994 18.8765 37.9266 18.8765C40.5245 18.8765 41.822 18.2097 41.822 16.873V16.0342C41.822 15.4729 41.6832 15.0384 41.4086 14.7246C41.134 14.4138 40.6271 14.094 39.8939 13.7711L35.567 11.831C33.126 10.7327 31.907 9.14858 31.907 7.07868V5.07517V5.07215Z" fill="#06060F"/>
<path d="M50.1021 3.94113C51.5957 3.53379 53.5781 3.32861 56.0433 3.32861C58.5085 3.32861 60.3068 3.77518 61.4323 4.67133C62.5607 5.56446 63.125 6.90718 63.125 8.69345V22.2986H58.6412V20.9408C57.6183 21.9094 56.1821 22.3952 54.3324 22.3952C52.4828 22.3952 51.125 22.018 50.2621 21.2637C49.3961 20.5094 48.9646 19.3567 48.9646 17.8058V16.7075C48.9646 15.395 49.3448 14.36 50.1052 13.6057C50.8655 12.8513 52.0966 12.2811 53.8044 11.8918L58.5628 10.8267V8.66026C58.5356 7.99342 58.3003 7.50763 57.8537 7.2059C57.4071 6.90416 56.3842 6.7533 54.785 6.7533C53.1859 6.7533 51.6259 6.9796 50.1021 7.4322V3.94113ZM53.6023 16.8704V17.8088C53.6023 18.9072 54.2962 19.4563 55.6872 19.4563C56.7614 19.4563 57.7058 19.2179 58.5205 18.7442V14.0251L55.7265 14.6708C54.8605 14.8639 54.2902 15.1113 54.0156 15.4131C53.7411 15.7148 53.6023 16.2006 53.6023 16.8674V16.8704Z" fill="#06060F"/>
<path d="M79.439 4.44497C78.5217 3.74193 77.3148 3.39192 75.8212 3.39192C74.3276 3.39192 72.7797 3.70572 71.1805 4.33031V3.35571C69.3792 3.42209 67.8826 3.61822 66.6968 3.94409V28.4781L71.4551 27.3768V22.2986H74.8768C76.6872 22.2986 78.1295 21.8943 79.2037 21.0856C80.2778 20.277 80.8149 19.0881 80.8149 17.5131V7.53171C80.8149 6.17693 80.3563 5.14801 79.439 4.44497ZM76.0173 16.9669C76.0173 18.1316 75.2449 18.714 73.697 18.714H71.4551V7.59508C72.3452 7.18472 73.2655 6.97652 74.21 6.97652C75.4169 6.97652 76.0204 7.44723 76.0204 8.36752V16.9669H76.0173Z" fill="#06060F"/>
<path d="M84.339 3.94113C85.8325 3.53379 87.8149 3.32861 90.2801 3.32861C92.7453 3.32861 94.5436 3.77518 95.6691 4.67133C96.7976 5.56446 97.3618 6.90718 97.3618 8.69345V22.2986H92.878V20.9408C91.8552 21.9094 90.4189 22.3952 88.5693 22.3952C86.7196 22.3952 85.3618 22.018 84.4989 21.2637C83.6329 20.5094 83.2014 19.3567 83.2014 17.8058V16.7075C83.2014 15.395 83.5816 14.36 84.342 13.6057C85.1023 12.8513 86.3334 12.2811 88.0412 11.8918L92.7996 10.8267V8.66026C92.7724 7.99342 92.5371 7.50763 92.0905 7.2059C91.6439 6.90416 90.6211 6.7533 89.0219 6.7533C87.4227 6.7533 85.8627 6.9796 84.339 7.4322V3.94113ZM87.8391 16.8704V17.8088C87.8391 18.9072 88.5331 19.4563 89.9241 19.4563C90.9982 19.4563 91.9426 19.2179 92.7573 18.7442V14.0251L89.9633 14.6708C89.0973 14.8639 88.527 15.1113 88.2524 15.4131C87.9779 15.7148 87.8391 16.2006 87.8391 16.8674V16.8704Z" fill="#06060F"/>
<path d="M0.762507 33.229V31.9956H9.37435V33.229H5.76366V43.478H4.3732V33.229H0.762507ZM13.5448 43.6574C12.715 43.6574 11.9992 43.4743 11.3975 43.108C10.7994 42.7379 10.3378 42.2221 10.0126 41.5605C9.69117 40.8952 9.53044 40.1215 9.53044 39.2394C9.53044 38.3573 9.69117 37.5798 10.0126 36.907C10.3378 36.2305 10.7901 35.7034 11.3694 35.3259C11.9525 34.9447 12.6328 34.754 13.4103 34.754C13.8588 34.754 14.3017 34.8288 14.739 34.9783C15.1764 35.1278 15.5744 35.3708 15.9333 35.7072C16.2921 36.0398 16.578 36.4809 16.7911 37.0304C17.0041 37.5798 17.1107 38.2563 17.1107 39.06V39.6206H10.4724V38.4769H15.7651C15.7651 37.991 15.6679 37.5574 15.4735 37.1761C15.2829 36.7949 15.01 36.494 14.6549 36.2735C14.3036 36.0529 13.8887 35.9427 13.4103 35.9427C12.8832 35.9427 12.4272 36.0735 12.0422 36.3351C11.661 36.593 11.3676 36.9294 11.162 37.3443C10.9564 37.7592 10.8536 38.204 10.8536 38.6787V39.4412C10.8536 40.0916 10.9658 40.6429 11.19 41.0952C11.418 41.5437 11.7339 41.8857 12.1375 42.1212C12.5412 42.353 13.0103 42.4688 13.5448 42.4688C13.8924 42.4688 14.2064 42.4202 14.4867 42.3231C14.7708 42.2221 15.0156 42.0726 15.2212 41.8745C15.4268 41.6727 15.5856 41.4222 15.6978 41.1232L16.9761 41.4821C16.8415 41.9156 16.6154 42.2969 16.2977 42.6258C15.98 42.951 15.5875 43.2052 15.1203 43.3883C14.6531 43.5677 14.1279 43.6574 13.5448 43.6574ZM22.4641 43.6574C21.6568 43.6574 20.9615 43.4668 20.3785 43.0856C19.7954 42.7043 19.3468 42.1791 19.0329 41.5101C18.7189 40.841 18.5619 40.0766 18.5619 39.217C18.5619 38.3423 18.7226 37.5705 19.0441 36.9014C19.3693 36.2286 19.8215 35.7034 20.4009 35.3259C20.984 34.9447 21.6643 34.754 22.4417 34.754C23.0472 34.754 23.5929 34.8662 24.0789 35.0904C24.5648 35.3147 24.9628 35.6287 25.2731 36.0324C25.5833 36.436 25.7758 36.907 25.8506 37.4452H24.5274C24.4265 37.0528 24.2022 36.7052 23.8546 36.4024C23.5107 36.0959 23.0472 35.9427 22.4641 35.9427C21.9483 35.9427 21.4961 36.0772 21.1073 36.3463C20.7223 36.6117 20.4214 36.9874 20.2046 37.4733C19.9916 37.9555 19.8851 38.5217 19.8851 39.1721C19.8851 39.8374 19.9897 40.4168 20.199 40.9102C20.4121 41.4036 20.7111 41.7867 21.0961 42.0595C21.4848 42.3324 21.9408 42.4688 22.4641 42.4688C22.808 42.4688 23.1201 42.409 23.4005 42.2894C23.6808 42.1698 23.9181 41.9979 24.1125 41.7736C24.3069 41.5493 24.4452 41.2802 24.5274 40.9662H25.8506C25.7758 41.4746 25.5908 41.9325 25.2955 42.3399C25.004 42.7436 24.6171 43.065 24.1349 43.3042C23.6565 43.5397 23.0996 43.6574 22.4641 43.6574ZM28.9502 38.2975V43.478H27.627V31.9956H28.9502V36.2118H29.0623C29.2641 35.767 29.5669 35.4138 29.9706 35.1521C30.378 34.8867 30.92 34.754 31.5965 34.754C32.1833 34.754 32.6973 34.8718 33.1383 35.1073C33.5794 35.339 33.9214 35.696 34.1644 36.1781C34.4111 36.6566 34.5344 37.2658 34.5344 38.0059V43.478H33.2112V38.0956C33.2112 37.4116 33.0337 36.8827 32.6786 36.5089C32.3272 36.1314 31.8395 35.9427 31.2153 35.9427C30.7817 35.9427 30.3929 36.0342 30.0491 36.2174C29.7089 36.4005 29.4398 36.6678 29.2417 37.0191C29.0473 37.3705 28.9502 37.7966 28.9502 38.2975ZM38.1204 38.2975V43.478H36.7972V34.8662H38.0755V36.2118H38.1877C38.3895 35.7745 38.696 35.4231 39.1071 35.1577C39.5183 34.8886 40.0491 34.754 40.6994 34.754C41.2825 34.754 41.7927 34.8737 42.2301 35.1129C42.6674 35.3484 43.0075 35.7072 43.2505 36.1894C43.4934 36.6678 43.6149 37.2733 43.6149 38.0059V43.478H42.2917V38.0956C42.2917 37.4191 42.1161 36.8921 41.7647 36.5145C41.4134 36.1333 40.9312 35.9427 40.3182 35.9427C39.8958 35.9427 39.5183 36.0342 39.1856 36.2174C38.8567 36.4005 38.5969 36.6678 38.4063 37.0191C38.2157 37.3705 38.1204 37.7966 38.1204 38.2975ZM49.3735 43.6574C48.596 43.6574 47.9139 43.4724 47.327 43.1024C46.7439 42.7323 46.2879 42.2147 45.959 41.5493C45.6338 40.884 45.4712 40.1065 45.4712 39.217C45.4712 38.3199 45.6338 37.5368 45.959 36.8678C46.2879 36.1987 46.7439 35.6791 47.327 35.3091C47.9139 34.9391 48.596 34.754 49.3735 34.754C50.1509 34.754 50.8312 34.9391 51.4143 35.3091C52.0011 35.6791 52.4571 36.1987 52.7823 36.8678C53.1112 37.5368 53.2757 38.3199 53.2757 39.217C53.2757 40.1065 53.1112 40.884 52.7823 41.5493C52.4571 42.2147 52.0011 42.7323 51.4143 43.1024C50.8312 43.4724 50.1509 43.6574 49.3735 43.6574ZM49.3735 42.4688C49.964 42.4688 50.4499 42.3174 50.8312 42.0147C51.2125 41.7119 51.4947 41.3139 51.6778 40.8205C51.861 40.3271 51.9525 39.7926 51.9525 39.217C51.9525 38.6413 51.861 38.105 51.6778 37.6078C51.4947 37.1107 51.2125 36.7089 50.8312 36.4024C50.4499 36.0959 49.964 35.9427 49.3735 35.9427C48.7829 35.9427 48.297 36.0959 47.9157 36.4024C47.5345 36.7089 47.2523 37.1107 47.0691 37.6078C46.886 38.105 46.7944 38.6413 46.7944 39.217C46.7944 39.7926 46.886 40.3271 47.0691 40.8205C47.2523 41.3139 47.5345 41.7119 47.9157 42.0147C48.297 42.3174 48.7829 42.4688 49.3735 42.4688ZM56.4608 31.9956V43.478H55.1376V31.9956H56.4608ZM62.225 43.6574C61.4475 43.6574 60.7654 43.4724 60.1785 43.1024C59.5954 42.7323 59.1394 42.2147 58.8105 41.5493C58.4853 40.884 58.3227 40.1065 58.3227 39.217C58.3227 38.3199 58.4853 37.5368 58.8105 36.8678C59.1394 36.1987 59.5954 35.6791 60.1785 35.3091C60.7654 34.9391 61.4475 34.754 62.225 34.754C63.0024 34.754 63.6827 34.9391 64.2658 35.3091C64.8526 35.6791 65.3086 36.1987 65.6338 36.8678C65.9627 37.5368 66.1272 38.3199 66.1272 39.217C66.1272 40.1065 65.9627 40.884 65.6338 41.5493C65.3086 42.2147 64.8526 42.7323 64.2658 43.1024C63.6827 43.4724 63.0024 43.6574 62.225 43.6574ZM62.225 42.4688C62.8155 42.4688 63.3014 42.3174 63.6827 42.0147C64.064 41.7119 64.3462 41.3139 64.5293 40.8205C64.7125 40.3271 64.804 39.7926 64.804 39.217C64.804 38.6413 64.7125 38.105 64.5293 37.6078C64.3462 37.1107 64.064 36.7089 63.6827 36.4024C63.3014 36.0959 62.8155 35.9427 62.225 35.9427C61.6344 35.9427 61.1485 36.0959 60.7672 36.4024C60.386 36.7089 60.1038 37.1107 59.9206 37.6078C59.7375 38.105 59.6459 38.6413 59.6459 39.217C59.6459 39.7926 59.7375 40.3271 59.9206 40.8205C60.1038 41.3139 60.386 41.7119 60.7672 42.0147C61.1485 42.3174 61.6344 42.4688 62.225 42.4688ZM71.4653 46.8869C70.8261 46.8869 70.2766 46.8047 69.8169 46.6402C69.3572 46.4795 68.974 46.2664 68.6675 46.001C68.3648 45.7394 68.1237 45.4591 67.9443 45.16L68.9983 44.4199C69.1179 44.5769 69.2693 44.7563 69.4525 44.9582C69.6356 45.1638 69.886 45.3413 70.2038 45.4908C70.5252 45.6441 70.9457 45.7207 71.4653 45.7207C72.1605 45.7207 72.7342 45.5525 73.1865 45.2161C73.6388 44.8797 73.8649 44.3527 73.8649 43.635V41.8857H73.7528C73.6556 42.0427 73.5173 42.2371 73.3379 42.4688C73.1622 42.6968 72.908 42.9005 72.5754 43.08C72.2465 43.2556 71.8017 43.3435 71.241 43.3435C70.5458 43.3435 69.9216 43.179 69.3684 42.8501C68.8189 42.5212 68.3835 42.0427 68.062 41.4148C67.7443 40.7868 67.5854 40.0243 67.5854 39.1273C67.5854 38.2451 67.7406 37.477 68.0508 36.8229C68.361 36.1651 68.7927 35.6567 69.3459 35.2979C69.8991 34.9353 70.5383 34.754 71.2634 34.754C71.8241 34.754 72.2689 34.8475 72.5978 35.0344C72.9305 35.2175 73.1846 35.4268 73.3603 35.6623C73.5397 35.8941 73.678 36.0847 73.7752 36.2342H73.9098V34.8662H75.1881V43.7247C75.1881 44.4648 75.0199 45.0666 74.6835 45.5301C74.3508 45.9973 73.9023 46.3393 73.3379 46.5561C72.7772 46.7766 72.153 46.8869 71.4653 46.8869ZM71.4204 42.1549C71.9512 42.1549 72.3997 42.0334 72.766 41.7904C73.1323 41.5475 73.4108 41.198 73.6014 40.742C73.792 40.286 73.8873 39.7402 73.8873 39.1048C73.8873 38.4844 73.7939 37.9368 73.607 37.4621C73.4201 36.9874 73.1435 36.6155 72.7772 36.3463C72.4109 36.0772 71.9586 35.9427 71.4204 35.9427C70.8597 35.9427 70.3925 36.0847 70.0187 36.3688C69.6487 36.6528 69.3702 37.0341 69.1833 37.5125C69.0002 37.991 68.9086 38.5217 68.9086 39.1048C68.9086 39.7029 69.0021 40.2318 69.189 40.6915C69.3796 41.1475 69.6599 41.5063 70.03 41.768C70.4037 42.0259 70.8672 42.1549 71.4204 42.1549ZM77.4523 43.478V34.8662H78.7755V43.478H77.4523ZM78.1251 33.4309C77.8672 33.4309 77.6448 33.343 77.4579 33.1674C77.2747 32.9917 77.1832 32.7805 77.1832 32.5338C77.1832 32.2871 77.2747 32.0759 77.4579 31.9003C77.6448 31.7246 77.8672 31.6367 78.1251 31.6367C78.383 31.6367 78.6035 31.7246 78.7867 31.9003C78.9736 32.0759 79.067 32.2871 79.067 32.5338C79.067 32.7805 78.9736 32.9917 78.7867 33.1674C78.6035 33.343 78.383 33.4309 78.1251 33.4309ZM84.6518 43.6574C83.822 43.6574 83.1062 43.4743 82.5044 43.108C81.9064 42.7379 81.4447 42.2221 81.1196 41.5605C80.7981 40.8952 80.6374 40.1215 80.6374 39.2394C80.6374 38.3573 80.7981 37.5798 81.1196 36.907C81.4447 36.2305 81.897 35.7034 82.4764 35.3259C83.0595 34.9447 83.7397 34.754 84.5172 34.754C84.9657 34.754 85.4087 34.8288 85.846 34.9783C86.2833 35.1278 86.6814 35.3708 87.0402 35.7072C87.399 36.0398 87.685 36.4809 87.898 37.0304C88.1111 37.5798 88.2176 38.2563 88.2176 39.06V39.6206H81.5793V38.4769H86.872C86.872 37.991 86.7748 37.5574 86.5805 37.1761C86.3898 36.7949 86.117 36.494 85.7619 36.2735C85.4105 36.0529 84.9956 35.9427 84.5172 35.9427C83.9902 35.9427 83.5342 36.0735 83.1492 36.3351C82.7679 36.593 82.4745 36.9294 82.2689 37.3443C82.0633 37.7592 81.9606 38.204 81.9606 38.6787V39.4412C81.9606 40.0916 82.0727 40.6429 82.297 41.0952C82.525 41.5437 82.8408 41.8857 83.2445 42.1212C83.6482 42.353 84.1173 42.4688 84.6518 42.4688C84.9994 42.4688 85.3133 42.4202 85.5937 42.3231C85.8778 42.2221 86.1226 42.0726 86.3282 41.8745C86.5337 41.6727 86.6926 41.4222 86.8047 41.1232L88.083 41.4821C87.9485 41.9156 87.7223 42.2969 87.4046 42.6258C87.0869 42.951 86.6945 43.2052 86.2272 43.3883C85.76 43.5677 85.2349 43.6574 84.6518 43.6574ZM96.1726 36.7949L94.984 37.1313C94.9092 36.9332 94.7989 36.7407 94.6532 36.5538C94.5111 36.3632 94.3168 36.2062 94.0701 36.0828C93.8234 35.9595 93.5075 35.8978 93.1225 35.8978C92.5955 35.8978 92.1563 36.0193 91.805 36.2622C91.4574 36.5015 91.2836 36.8061 91.2836 37.1761C91.2836 37.5051 91.4032 37.7648 91.6424 37.9555C91.8816 38.1461 92.2554 38.3049 92.7637 38.432L94.042 38.746C94.812 38.9329 95.3858 39.2188 95.7633 39.6038C96.1408 39.9851 96.3296 40.4766 96.3296 41.0784C96.3296 41.5718 96.1875 42.0128 95.9035 42.4015C95.6231 42.7903 95.2307 43.0968 94.7261 43.321C94.2215 43.5453 93.6346 43.6574 92.9656 43.6574C92.0872 43.6574 91.3602 43.4668 90.7846 43.0856C90.2089 42.7043 89.8445 42.1474 89.6913 41.4148L90.9472 41.1008C91.0668 41.5643 91.2929 41.9119 91.6256 42.1436C91.962 42.3754 92.4012 42.4913 92.9431 42.4913C93.5599 42.4913 94.0495 42.3604 94.4121 42.0988C94.7784 41.8334 94.9615 41.5157 94.9615 41.1457C94.9615 40.8466 94.8569 40.5962 94.6476 40.3944C94.4382 40.1888 94.1168 40.0355 93.6832 39.9346L92.2479 39.5982C91.4592 39.4113 90.8799 39.1216 90.5098 38.7292C90.1435 38.333 89.9604 37.8377 89.9604 37.2434C89.9604 36.7575 90.0968 36.3277 90.3697 35.9539C90.6463 35.5801 91.0219 35.2867 91.4966 35.0736C91.975 34.8606 92.517 34.754 93.1225 34.754C93.9748 34.754 94.6438 34.9409 95.1297 35.3147C95.6194 35.6885 95.967 36.1819 96.1726 36.7949Z" fill="#06060F"/>
</svg>
